<svg width="128" height="128" viewBox="0 0 128 128" fill="none" xmlns="http://www.w3.org/2000/svg">
<path d="M121.333 126.667H6.66683C3.7335 126.667 1.3335 124.267 1.3335 121.333V41.5999C1.3335 39.9999 1.86683 38.6666 3.20016 37.5999C4.26683 36.5333 5.86683 36.2666 7.46683 36.2666L122.4 51.9999C125.067 52.2666 126.933 54.6666 126.933 57.0666V121.067C126.667 124.267 124.267 126.667 121.333 126.667ZM11.7335 116.267H116.267V61.8666L11.7335 47.7333V116.267Z" fill="#8E8E8E"/>
<path d="M97.0668 58.6663C94.1334 58.6663 91.7334 56.2663 91.7334 53.333V11.733H36.2668V44.533C36.2668 47.4663 33.8668 49.8663 30.9334 49.8663C28.0001 49.8663 25.6001 47.4663 25.6001 44.533V6.66634C25.6001 3.73301 28.0001 1.33301 30.9334 1.33301H97.0668C100 1.33301 102.4 3.73301 102.4 6.66634V53.5997C102.4 56.2663 100 58.6663 97.0668 58.6663Z" fill="#8E8E8E"/>
<path d="M80.0003 126.666H48.0003C45.067 126.666 42.667 124.266 42.667 121.333V83.9993C42.667 81.066 45.067 78.666 48.0003 78.666H80.0003C82.9337 78.666 85.3337 81.066 85.3337 83.9993V121.333C85.067 124.266 82.667 126.666 80.0003 126.666ZM53.3337 116.266H74.667V89.3327H53.3337V116.266Z" fill="#8E8E8E"/>
</svg>
