<svg width="128" height="128" viewBox="0 0 128 128" fill="none" xmlns="http://www.w3.org/2000/svg">
<path d="M109.067 126.667H18.9334C16.0001 126.667 13.6001 124.267 13.6001 121.334V71.2005C13.6001 68.2672 16.0001 65.8672 18.9334 65.8672C21.8668 65.8672 24.2668 68.2672 24.2668 71.2005V116.267H103.733V71.2005C103.733 68.2672 106.133 65.8672 109.067 65.8672C112 65.8672 114.4 68.2672 114.4 71.2005V121.334C114.133 124.267 112 126.667 109.067 126.667Z" fill="#8E8E8E"/>
<path d="M121.333 82.1334C120.267 82.1334 119.467 81.8667 118.667 81.3334L63.9999 47.2001L9.3332 81.3334C6.9332 82.9334 3.7332 82.1334 2.1332 79.7334C0.533196 77.3334 1.3332 74.1334 3.7332 72.5334L61.3332 36.5334C62.9332 35.4667 65.0665 35.4667 66.9332 36.5334L124.267 72.5334C126.667 74.1334 127.467 77.3334 125.867 79.7334C124.8 81.3334 123.2 82.1334 121.333 82.1334Z" fill="#8E8E8E"/>
<path d="M34.1331 60.7995C31.1998 60.7995 28.7998 58.3995 28.7998 55.4661V27.4661C28.7998 24.5328 31.1998 22.1328 34.1331 22.1328C37.0665 22.1328 39.4665 24.5328 39.4665 27.4661V55.4661C39.1998 58.3995 36.7998 60.7995 34.1331 60.7995Z" fill="#8E8E8E"/>
<path d="M93.8665 60.7995C90.9332 60.7995 88.5332 58.3995 88.5332 55.4661V27.4661C88.5332 24.5328 90.9332 22.1328 93.8665 22.1328C96.7999 22.1328 99.1999 24.5328 99.1999 27.4661V55.4661C99.1999 58.3995 96.7999 60.7995 93.8665 60.7995Z" fill="#8E8E8E"/>
<path d="M25.8664 37.333C23.9997 37.333 22.3997 36.533 21.333 34.933C19.733 32.533 20.2664 29.333 22.6664 27.733L60.7997 2.13301C62.6664 1.06634 64.7997 1.06634 66.6664 2.13301L104.8 27.733C107.2 29.333 107.733 32.533 106.133 34.933C104.533 37.333 101.333 37.8663 98.933 36.2663L63.9997 12.7997L28.533 36.533C27.733 37.0663 26.6664 37.333 25.8664 37.333Z" fill="#8E8E8E"/>
<path d="M77.5997 126.667H50.3997C47.4664 126.667 45.0664 124.267 45.0664 121.333V85.5999C45.0664 82.6666 47.4664 80.2666 50.3997 80.2666H77.8664C80.7997 80.2666 83.1997 82.6666 83.1997 85.5999V121.333C82.9331 124.267 80.5331 126.667 77.5997 126.667ZM55.4664 116.267H72.5331V90.9333H55.4664V116.267Z" fill="#8E8E8E"/>
</svg>
