<svg width="128" height="128" viewBox="0 0 128 128" fill="none" xmlns="http://www.w3.org/2000/svg">
<path d="M113.867 126.666H14.1336C11.2003 126.666 8.80029 124.266 8.80029 121.333V15.4663C8.80029 13.333 10.1336 11.1997 12.267 10.6663C13.3336 10.3997 35.7336 1.33301 65.867 1.33301C83.7336 1.33301 100.534 4.53301 115.734 10.6663C117.6 11.4663 118.934 13.333 118.934 15.4663V121.6C119.2 124.266 116.8 126.666 113.867 126.666ZM19.467 116.266H108.8V18.933C95.7336 14.133 81.3336 11.733 66.1336 11.733C44.5336 11.733 26.667 16.7997 19.7336 19.1997V116.266H19.467Z" fill="#8E8E8E"/>
<path d="M121.6 126.667H6.40023C3.46689 126.667 1.06689 124.267 1.06689 121.333C1.06689 118.4 3.46689 116 6.40023 116H121.334C124.267 116 126.667 118.4 126.667 121.333C126.667 124.267 124.267 126.667 121.6 126.667Z" fill="#8E8E8E"/>
<path d="M81.8667 126.666H47.2C44.2667 126.666 41.8667 124.266 41.8667 121.333V91.9993C41.8667 80.2659 51.4667 70.9326 62.9334 70.9326H65.6C77.3334 70.9326 86.6667 80.5326 86.6667 91.9993V121.333C87.2 124.266 84.8 126.666 81.8667 126.666ZM52.5334 116.266H76.8V92.2659C76.8 86.3993 72 81.5993 66.1334 81.5993H63.4667C57.6 81.5993 52.8 86.3993 52.8 92.2659V116.266H52.5334Z" fill="#8E8E8E"/>
<path d="M46.4002 53.5999C43.4669 53.5999 41.0669 51.1999 41.0669 48.2666V37.5999C41.0669 34.6666 43.4669 32.2666 46.4002 32.2666C49.3336 32.2666 51.7336 34.6666 51.7336 37.5999V48.2666C51.7336 51.1999 49.3336 53.5999 46.4002 53.5999Z" fill="#8E8E8E"/>
<path d="M81.6004 53.5999C78.6671 53.5999 76.2671 51.1999 76.2671 48.2666V37.5999C76.2671 34.6666 78.6671 32.2666 81.6004 32.2666C84.5338 32.2666 86.9338 34.6666 86.9338 37.5999V48.2666C86.6671 51.1999 84.5338 53.5999 81.6004 53.5999Z" fill="#8E8E8E"/>
</svg>
