<svg width="128" height="128" viewBox="0 0 128 128" fill="none" xmlns="http://www.w3.org/2000/svg">
<path d="M53.5996 118.399H14.1329C11.7329 118.399 9.59961 116.266 9.59961 113.866V42.6661C9.59961 41.3328 10.3996 39.7328 11.4663 38.9328L50.9329 10.3994C52.2663 9.33275 54.1329 9.33275 55.7329 10.1328C57.3329 10.9328 58.1329 12.5328 58.1329 14.1328V113.866C58.1329 116.266 56.2663 118.399 53.5996 118.399ZM18.6663 109.333H49.0663V22.9328L18.6663 44.7994V109.333Z" fill="#8E8E8E"/>
<path d="M84.2665 118.4H54.6665C52.2665 118.4 50.1332 116.267 50.1332 113.867C50.1332 111.467 52.2665 109.333 54.6665 109.333H79.7332V22.1332L56.7998 35.7332C54.6665 37.0665 51.7332 36.2665 50.6665 34.1332C49.3332 31.9999 50.1332 29.0665 52.2665 27.9999L82.1332 10.1332C83.4665 9.3332 85.3332 9.3332 86.6665 10.1332C87.9998 10.9332 89.0665 12.5332 89.0665 14.1332V113.867C88.7998 116.267 86.9332 118.4 84.2665 118.4Z" fill="#8E8E8E"/>
<path d="M113.867 118.4H84.2667C81.8667 118.4 79.7334 116.266 79.7334 113.866C79.7334 111.466 81.8667 109.333 84.2667 109.333H109.333V22.1331L86.9334 35.4665C84.8001 36.7998 81.8667 35.9998 80.8001 33.8665C79.4667 31.7331 80.2667 28.7998 82.4001 27.7331L111.733 10.3998C113.067 9.5998 114.933 9.5998 116.267 10.3998C117.6 11.1998 118.667 12.7998 118.667 14.3998V114.133C118.4 116.266 116.267 118.4 113.867 118.4Z" fill="#8E8E8E"/>
<path d="M122.133 118.4H5.86634C3.46634 118.4 1.33301 116.266 1.33301 113.866C1.33301 111.466 3.46634 109.333 5.86634 109.333H122.133C124.533 109.333 126.666 111.466 126.666 113.866C126.666 116.266 124.533 118.4 122.133 118.4Z" fill="#8E8E8E"/>
<path d="M33.8663 117.066C31.4663 117.066 29.333 114.933 29.333 112.533V89.8663C29.333 87.4663 31.4663 85.333 33.8663 85.333C36.2663 85.333 38.3997 87.4663 38.3997 89.8663V112.533C38.3997 114.933 36.533 117.066 33.8663 117.066Z" fill="#8E8E8E"/>
</svg>
