<svg width="128" height="128" viewBox="0 0 128 128" fill="none" xmlns="http://www.w3.org/2000/svg">
<path d="M63.9997 126.666H6.66634C3.73301 126.666 1.33301 124.266 1.33301 121.333V6.66634C1.33301 5.06634 2.13301 3.46634 3.46634 2.39967C4.79967 1.33301 6.66634 1.06634 8.26634 1.59967L65.5997 20.7997C67.733 21.333 69.333 23.4663 69.333 25.5997V121.333C69.333 124.266 66.933 126.666 63.9997 126.666ZM11.733 116.266H58.6663V29.333L11.733 13.8663V116.266Z" fill="#8E8E8E"/>
<path d="M121.333 126.666H63.9993C61.066 126.666 58.666 124.266 58.666 121.333V6.66634C58.666 5.06634 59.466 3.46634 60.7993 2.39967C62.1327 1.33301 63.9994 1.06634 65.5994 1.59967L122.933 20.7997C125.066 21.5997 126.399 23.4663 126.399 25.8663V121.6C126.666 124.266 124.266 126.666 121.333 126.666ZM69.3327 116.266H116.266V29.333L69.3327 13.8663V116.266Z" fill="#8E8E8E"/>
<path d="M35.1995 124.266C32.2662 124.266 29.8662 121.866 29.8662 118.933V86.9329C29.8662 83.9996 32.2662 81.5996 35.1995 81.5996C38.1329 81.5996 40.5329 83.9996 40.5329 86.9329V118.933C40.5329 122.133 38.1329 124.266 35.1995 124.266Z" fill="#8E8E8E"/>
<path d="M92.8001 124.266C89.8668 124.266 87.4668 121.866 87.4668 118.933V86.9329C87.4668 83.9996 89.8668 81.5996 92.8001 81.5996C95.7335 81.5996 98.1335 83.9996 98.1335 86.9329V118.933C97.8668 122.133 95.7335 124.266 92.8001 124.266Z" fill="#8E8E8E"/>
<path d="M94.3996 43.4665H90.9329C87.9996 43.4665 85.5996 41.0665 85.5996 38.1331C85.5996 35.1998 87.9996 32.7998 90.9329 32.7998H94.3996C97.333 32.7998 99.733 35.1998 99.733 38.1331C99.733 41.0665 97.333 43.4665 94.3996 43.4665Z" fill="#8E8E8E"/>
<path d="M94.3996 65.3327H90.9329C87.9996 65.3327 85.5996 62.9327 85.5996 59.9993C85.5996 57.066 87.9996 54.666 90.9329 54.666H94.3996C97.333 54.666 99.733 57.066 99.733 59.9993C99.733 62.9327 97.333 65.3327 94.3996 65.3327Z" fill="#8E8E8E"/>
<path d="M37.0666 43.4665H33.5999C30.6666 43.4665 28.2666 41.0665 28.2666 38.1331C28.2666 35.1998 30.6666 32.7998 33.5999 32.7998H37.0666C39.9999 32.7998 42.3999 35.1998 42.3999 38.1331C42.3999 41.0665 39.7333 43.4665 37.0666 43.4665Z" fill="#8E8E8E"/>
<path d="M37.0666 65.3327H33.5999C30.6666 65.3327 28.2666 62.9327 28.2666 59.9993C28.2666 57.066 30.6666 54.666 33.5999 54.666H37.0666C39.9999 54.666 42.3999 57.066 42.3999 59.9993C42.3999 62.9327 39.7333 65.3327 37.0666 65.3327Z" fill="#8E8E8E"/>
</svg>
