<svg width="128" height="128" viewBox="0 0 128 128" fill="none" xmlns="http://www.w3.org/2000/svg">
<path d="M90.3999 126.666H37.5999C34.6666 126.666 32.2666 124.266 32.2666 121.333V46.1331C32.2666 43.1998 34.6666 40.7998 37.5999 40.7998C40.5333 40.7998 42.9333 43.1998 42.9333 46.1331V116.266H85.5999V46.1331C85.5999 43.1998 87.9999 40.7998 90.9333 40.7998C93.8666 40.7998 96.2666 43.1998 96.2666 46.1331V121.333C95.7333 124.266 93.3333 126.666 90.3999 126.666Z" fill="#8E8E8E"/>
<path d="M96.2663 57.8663C94.6663 57.8663 93.0663 57.0663 91.9997 55.733L63.9997 15.733L35.9997 55.733C34.3997 58.133 31.1997 58.6663 28.7997 57.0663C26.3997 55.4663 25.8663 52.2663 27.4663 49.8663L59.733 3.46634C60.7997 2.13301 62.3997 1.33301 63.9997 1.33301C65.5997 1.33301 67.1997 2.13301 68.2663 3.46634L100.533 49.5997C102.133 51.9997 101.6 55.1997 99.1997 56.7997C98.3997 57.5997 97.333 57.8663 96.2663 57.8663Z" fill="#8E8E8E"/>
<path d="M114.933 126.667H90.6663C87.733 126.667 85.333 124.267 85.333 121.333V73.8665C85.333 70.9332 87.733 68.5332 90.6663 68.5332C93.5997 68.5332 95.9997 70.9332 95.9997 73.8665V116.267H109.866V82.9332C109.866 79.9999 112.266 77.5999 115.2 77.5999C118.133 77.5999 120.533 79.9999 120.533 82.9332V121.333C120 124.267 117.6 126.667 114.933 126.667Z" fill="#8E8E8E"/>
<path d="M37.6001 126.667H13.0667C10.1334 126.667 7.7334 124.267 7.7334 121.333V82.9332C7.7334 79.9999 10.1334 77.5999 13.0667 77.5999C16.0001 77.5999 18.4001 79.9999 18.4001 82.9332V116.267H32.2667V73.8665C32.2667 70.9332 34.6667 68.5332 37.6001 68.5332C40.5334 68.5332 42.9334 70.9332 42.9334 73.8665V121.6C42.6667 124.267 40.2667 126.667 37.6001 126.667Z" fill="#8E8E8E"/>
<path d="M121.333 87.1995C120.799 87.1995 120.266 87.1995 119.466 86.9328L90.1327 76.5328C87.4661 75.4661 85.8661 72.5328 86.9327 69.8661C87.9994 67.1995 90.9327 65.5995 93.5994 66.6661L122.933 77.0661C125.599 78.1328 127.199 81.0661 126.133 83.7328C125.599 85.8661 123.466 87.1995 121.333 87.1995Z" fill="#8E8E8E"/>
<path d="M6.66634 87.1995C4.53301 87.1995 2.39967 85.8661 1.86634 83.7328C0.799673 81.0661 2.39967 78.1328 5.06634 77.0661L34.3997 66.6661C37.0663 65.5995 39.9997 67.1995 41.0663 69.8661C42.133 72.5328 40.533 75.4661 37.8663 76.5328L8.53301 86.9328C7.73301 87.1995 7.19967 87.1995 6.66634 87.1995Z" fill="#8E8E8E"/>
<path d="M121.066 126.667H6.93294C3.99961 126.667 1.59961 124.267 1.59961 121.333C1.59961 118.4 3.99961 116 6.93294 116H121.066C124 116 126.4 118.4 126.4 121.333C126.4 124.267 124 126.667 121.066 126.667Z" fill="#8E8E8E"/>
<path d="M90.3999 51.4665H37.5999C34.6666 51.4665 32.2666 49.0665 32.2666 46.1331C32.2666 43.1998 34.6666 40.7998 37.5999 40.7998H90.6666C93.5999 40.7998 95.9999 43.1998 95.9999 46.1331C95.7333 49.0665 93.3333 51.4665 90.3999 51.4665Z" fill="#8E8E8E"/>
<path d="M63.9993 126.666C61.066 126.666 58.666 124.266 58.666 121.333V94.9329C58.666 91.9996 61.066 89.5996 63.9993 89.5996C66.9327 89.5996 69.3327 91.9996 69.3327 94.9329V121.333C69.3327 124.266 66.9327 126.666 63.9993 126.666Z" fill="#8E8E8E"/>
</svg>
